<?xml version="1.0" standalone="no"?>
<!DOCTYPE svg PUBLIC "-//W3C//DTD SVG 20010904//EN"
 "http://www.w3.org/TR/2001/REC-SVG-20010904/DTD/svg10.dtd">
<svg version="1.0" xmlns="http://www.w3.org/2000/svg"
 width="190.000000pt" height="190.000000pt" viewBox="0 0 190.000000 190.000000"
 preserveAspectRatio="xMidYMid meet">
<metadata>
Created by potrace 1.11, written by Peter Selinger 2001-2013
</metadata>
<g transform="translate(0.000000,190.000000) scale(0.100000,-0.100000)"
fill="#000000" stroke="none">
<path d="M323 1858 c-93 -98 -155 -221 -169 -337 -4 -29 -2 -41 5 -36 6 3 11
13 11 21 0 40 96 178 163 233 l30 25 -26 -46 c-14 -26 -39 -80 -56 -120 -28
-67 -38 -103 -57 -198 -10 -52 -12 -198 -2 -250 7 -41 13 -65 40 -157 11 -38
26 -44 22 -10 -1 12 -3 23 -4 25 -2 2 -2 69 -1 99 1 15 15 11 17 -5 0 -4 7
-27 14 -52 7 -25 14 -47 14 -50 1 -3 6 -18 13 -35 6 -16 30 -82 53 -145 23
-63 47 -128 54 -145 8 -16 24 -61 37 -98 20 -55 25 -64 30 -45 6 21 7 20 14
-9 10 -43 29 -43 22 0 -4 25 0 19 21 -25 30 -64 42 -72 43 -30 l1 27 8 -25 c4
-14 14 -46 21 -72 16 -57 29 -62 29 -12 0 39 15 39 22 0 4 -19 -4 -32 -38 -60
-23 -19 -62 -43 -86 -51 -75 -28 -131 -45 -163 -49 -170 -24 -258 -54 -321
-113 -28 -26 -74 -92 -74 -107 0 -3 421 -6 935 -6 514 0 935 3 935 8 0 17 -71
112 -99 131 -62 44 -138 69 -261 87 -87 12 -107 16 -135 26 -16 6 -38 18 -47
26 -10 8 -18 12 -18 8 0 -10 -51 20 -87 51 -29 27 -30 30 -18 58 l13 30 1 -38
c1 -53 14 -40 36 37 11 36 22 61 26 55 3 -6 4 -20 1 -32 -10 -39 16 -7 34 41
23 62 33 73 27 27 -6 -46 11 -40 22 7 8 31 8 32 13 8 3 -19 15 5 48 95 25 66
49 129 54 140 20 41 89 245 83 245 -3 0 0 6 6 13 6 8 12 22 14 33 2 10 9 37
15 59 19 68 33 156 33 203 -1 33 0 63 0 75 3 35 -25 159 -51 226 -33 85 -75
151 -145 229 l-47 52 -517 0 -517 0 -41 -42z m-33 -718 c0 -5 -5 -10 -11 -10
-5 0 -7 5 -4 10 3 6 8 10 11 10 2 0 4 -4 4 -10z"/>
</g>
</svg>
